<?xml version="1.0" encoding="UTF-8" standalone="no"?>
<!-- Created with Inkscape (http://www.inkscape.org/) -->

<svg
   width="55.757mm"
   height="16.313mm"
   viewBox="0 0 55.757 16.313"
   version="1.1"
   id="svg45604"
   sodipodi:docname="footer-logo.svg"
   inkscape:version="1.1.2 (0a00cf5339, 2022-02-04)"
   xmlns:inkscape="http://www.inkscape.org/namespaces/inkscape"
   xmlns:sodipodi="http://sodipodi.sourceforge.net/DTD/sodipodi-0.dtd"
   xmlns="http://www.w3.org/2000/svg"
   xmlns:svg="http://www.w3.org/2000/svg">
  <sodipodi:namedview
     id="namedview858"
     pagecolor="#ffffff"
     bordercolor="#666666"
     borderopacity="1.0"
     inkscape:pageshadow="2"
     inkscape:pageopacity="0.0"
     inkscape:pagecheckerboard="0"
     inkscape:document-units="mm"
     showgrid="false"
     inkscape:zoom="4.2110637"
     inkscape:cx="86.082763"
     inkscape:cy="27.902689"
     inkscape:window-width="1920"
     inkscape:window-height="1016"
     inkscape:window-x="0"
     inkscape:window-y="27"
     inkscape:window-maximized="1"
     inkscape:current-layer="svg45604" />
  <defs
     id="defs45601" />
  <rect
     style="opacity:0.99;fill:none;fill-opacity:1;stroke:none;stroke-width:0.665107;stroke-miterlimit:4;stroke-dasharray:none;stroke-opacity:1"
     id="rect17192-8"
     width="55.757191"
     height="16.312918"
     x="-3.63508e-06"
     y="-3.6311246e-06" />
  <path
     d="m 5.4330078,10.129091 q -1.2595969,0 -2.2256944,-0.5503096 Q 2.2534429,9.0284718 1.7275894,8.0746018 1.201741,7.1085028 1.201741,5.8855925 q 0,-0.966099 0.3057264,-1.7609907 Q 1.8254259,3.317481 2.3879605,2.7427133 2.9505001,2.155716 3.7209348,1.8377596 4.5035964,1.5198031 5.4330078,1.5198031 q 1.4308057,0 2.3602171,0.6114548 0.9416434,0.5992263 1.4552648,1.7243036 L 7.6220211,4.5037041 Q 7.2184582,3.8433325 6.6803777,3.5498341 6.1422971,3.2441061 5.4330078,3.2441061 q -0.6970573,0 -1.2473648,0.3301861 -0.5380806,0.3179565 -0.8560391,0.9049537 -0.3057264,0.5869968 -0.3057264,1.4063466 0,0.7582046 0.3057264,1.3452014 0.3179585,0.5747677 0.8560391,0.9049537 0.5503075,0.3179565 1.2473648,0.3179565 0.648144,0 1.1495384,-0.2445822 Q 7.0839406,7.9645403 7.389667,7.5120632 7.6953934,7.0473575 7.7320796,6.4359021 L 8.245701,7.0595866 H 5.2984902 V 5.457574 h 4.060063 q 0.048918,0.1956655 0.073372,0.4157895 0.024484,0.220124 0.024484,0.4402476 0,0.8560375 -0.3301855,1.5653253 Q 8.8082658,8.5759952 8.2457261,9.0896176 7.6954186,9.5910109 6.9739022,9.8600512 6.2523858,10.129091 5.4330329,10.129091 Z"
     style="font-weight:bold;font-size:25.4px;line-height:1.25;font-family:Gabarito;-inkscape-font-specification:'Gabarito Bold';letter-spacing:1.05833px;fill:#ffffff;fill-opacity:1;stroke-width:0.636933"
     id="path9257-5-9" />
  <path
     d="M 15.994853,9.9823418 H 10.932006 V 1.6543232 h 1.785451 V 8.9306393 L 12.26498,8.2580387 h 3.729873 z"
     style="font-weight:bold;font-size:25.4px;line-height:1.25;font-family:Gabarito;-inkscape-font-specification:'Gabarito Bold';letter-spacing:1.05833px;fill:#ffffff;fill-opacity:1;stroke-width:0.636933"
     id="path9259-6-2" />
  <path
     d="m 18.717854,6.7783172 h 3.913314 V 8.429246 h -3.913314 z m -1.822136,3.2040246 2.959443,-8.3280186 h 1.968886 L 24.63674,9.9823418 H 22.826831 L 20.552218,2.8772334 h 0.586999 l -2.445822,7.1051084 z"
     style="font-weight:bold;font-size:25.4px;line-height:1.25;font-family:Gabarito;-inkscape-font-specification:'Gabarito Bold';letter-spacing:1.05833px;fill:#ffffff;fill-opacity:1;stroke-width:0.636933"
     id="path9261-2-6" />
  <path
     d="M 25.896624,9.9823418 V 1.6543232 h 2.910529 q 1.296283,0 2.225695,0.5013928 0.941643,0.4891643 1.443032,1.4308053 0.513627,0.9294118 0.513627,2.237926 0,1.3207427 -0.513627,2.2501545 -0.501389,0.9294119 -1.443032,1.4185762 -0.941639,0.4891638 -2.237927,0.4891638 z m 1.78545,-1.0517025 -0.709289,-0.6726006 h 1.699846 q 0.745975,0 1.296288,-0.2445822 0.562534,-0.2568112 0.868266,-0.7948917 0.317953,-0.5380805 0.317953,-1.3941175 0,-0.8438085 -0.305726,-1.381889 Q 30.543685,3.9044777 29.981146,3.6476665 29.430838,3.3786263 28.684863,3.3786263 h -1.797678 l 0.794889,-0.525851 z"
     style="font-weight:bold;font-size:25.4px;line-height:1.25;font-family:Gabarito;-inkscape-font-specification:'Gabarito Bold';letter-spacing:1.05833px;fill:#ffffff;fill-opacity:1;stroke-width:0.636933"
     id="path9263-9-6" />
  <path
     d="M 36.904826,9.9823418 V 1.6543232 h 2.983897 q 1.027238,0 1.650923,0.2568112 0.623685,0.2568107 0.904952,0.7704331 0.2935,0.5013934 0.2935,1.2595979 0,0.5992258 -0.269041,1.063932 -0.256808,0.4524766 -0.709289,0.7092878 -0.452476,0.2568112 -1.027243,0.2568112 l 0.0367,-0.3913313 q 0.721517,0 1.198452,0.2690403 0.476935,0.2690402 0.721516,0.7337459 0.244587,0.4647062 0.244587,1.051703 0,1.173994 -0.721517,1.7609907 -0.709289,0.5869968 -2.103404,0.5869968 z M 38.690272,2.5715055 V 8.9795556 L 38.05436,8.2702677 h 2.030026 q 0.47693,0 0.745971,-0.2323531 0.281272,-0.232353 0.281272,-0.6359134 0,-0.4402476 -0.26904,-0.6603716 Q 40.585775,6.521506 40.108845,6.521506 H 38.05436 V 4.9806388 h 1.871049 q 0.489163,0 0.733744,-0.1956654 0.244581,-0.1956659 0.244581,-0.6114554 0,-0.3791018 -0.256813,-0.5869967 Q 40.40234,3.3663972 39.925409,3.3663972 h -1.822131 z"
     style="font-weight:bold;font-size:25.4px;line-height:1.25;font-family:Gabarito;-inkscape-font-specification:'Gabarito Bold';letter-spacing:1.05833px;fill:#ffffff;fill-opacity:1;stroke-width:0.636933"
     id="path9265-1-4" />
  <path
     d="M 46.414954,9.9823418 H 44.629509 V 1.6543232 h 1.785445 z"
     style="font-weight:bold;font-size:25.4px;line-height:1.25;font-family:Gabarito;-inkscape-font-specification:'Gabarito Bold';letter-spacing:1.05833px;fill:#ffffff;fill-opacity:1;stroke-width:0.636933"
     id="path9267-2-9" />
  <path
     d="M 50.238576,9.9823418 V 2.4981312 h 1.797677 V 9.9823418 Z M 47.7683,3.3786263 V 1.6543232 h 6.787152 v 1.7243031 z"
     style="font-weight:bold;font-size:25.4px;line-height:1.25;font-family:Gabarito;-inkscape-font-specification:'Gabarito Bold';letter-spacing:1.05833px;fill:#ffffff;fill-opacity:1;stroke-width:0.636933"
     id="path9269-7-5" />
  <g
     id="g975"
     transform="translate(0,0.63355516)"
     style="fill:#ffffff">
    <path
       d="M 3.0976671,13.800065 H 2.8843977 l 0.659803,-1.309606 h 0.3732215 l -0.806427,1.526211 0.049974,-0.28658 v 1.029691 H 2.827732 V 13.73009 l 0.046656,0.28658 -0.7997655,-1.526211 h 0.3698933 z"
       style="font-size:6.92132px;line-height:1.25;font-family:Gabarito;-inkscape-font-specification:Gabarito;letter-spacing:0.519101px;fill:#ffffff;stroke:#ffffff;stroke-width:0.185208;stroke-miterlimit:4;stroke-dasharray:none;stroke-opacity:0.996502"
       id="path17017-0-0" />
    <path
       d="m 4.1673476,13.626788 q 0,-0.253263 0.08664,-0.466531 0.089973,-0.213267 0.2499255,-0.369892 0.1599521,-0.156618 0.3732215,-0.243258 0.2166027,-0.08664 0.4698615,-0.08664 0.2499254,0 0.4631948,0.08664 0.2132695,0.08664 0.3698933,0.243258 0.1599521,0.156625 0.2465922,0.369892 0.089973,0.213268 0.089973,0.466531 0,0.249921 -0.089973,0.463194 -0.08664,0.213268 -0.2465922,0.373224 -0.1566238,0.156619 -0.3698933,0.243258 -0.2132694,0.08664 -0.4631948,0.08664 -0.2532588,0 -0.4698615,-0.08664 Q 4.6638652,14.619824 4.5039131,14.463206 4.343961,14.30325 4.2539876,14.089982 q -0.08664,-0.213273 -0.08664,-0.463194 z m 0.3398988,0 q 0,0.243258 0.109968,0.436536 0.1099681,0.189941 0.2999096,0.299911 0.1899415,0.109966 0.4298722,0.109966 0.2399306,0 0.4265388,-0.109966 0.1866133,-0.10997 0.2932481,-0.299911 0.109968,-0.193278 0.109968,-0.436536 0,-0.246594 -0.109968,-0.43654 Q 5.9601483,13.000307 5.773535,12.890336 5.5869268,12.780371 5.3469962,12.780371 q -0.2399307,0 -0.4298722,0.109965 -0.1899415,0.109971 -0.2999096,0.299912 -0.109968,0.189946 -0.109968,0.43654 z"
       style="font-size:6.92132px;line-height:1.25;font-family:Gabarito;-inkscape-font-specification:Gabarito;letter-spacing:0.519101px;fill:#ffffff;stroke:#ffffff;stroke-width:0.185208;stroke-miterlimit:4;stroke-dasharray:none;stroke-opacity:0.996502"
       id="path17019-9-4" />
    <path
       d="m 7.9962079,14.793107 q -0.256592,0 -0.4565334,-0.09997 -0.196608,-0.09997 -0.3099093,-0.29658 -0.1133013,-0.199941 -0.1133013,-0.489853 v -1.416245 h 0.3332373 v 1.36626 q 0,0.293244 0.1399574,0.456531 0.1432908,0.159951 0.4065493,0.159951 0.2665868,0 0.4065443,-0.159951 0.1399574,-0.163287 0.1399574,-0.456531 v -1.36626 h 0.3332323 v 1.416245 q 0,0.289912 -0.1132963,0.489853 -0.1133013,0.196609 -0.3132426,0.29658 -0.1966081,0.09997 -0.4531951,0.09997 z"
       style="font-size:6.92132px;line-height:1.25;font-family:Gabarito;-inkscape-font-specification:Gabarito;letter-spacing:0.519101px;fill:#ffffff;stroke:#ffffff;stroke-width:0.185208;stroke-miterlimit:4;stroke-dasharray:none;stroke-opacity:0.996502"
       id="path17021-3-8" />
    <path
       d="M 9.6757073,14.759781 V 12.490459 H 10.50879 q 0.233265,0 0.40655,0.09997 0.176613,0.09664 0.273248,0.263259 0.09664,0.166614 0.09664,0.373223 0,0.206604 -0.09664,0.373219 -0.09663,0.166619 -0.273248,0.263258 -0.173285,0.09664 -0.40655,0.09664 H 9.9489607 v -0.313244 h 0.5031843 q 0.219931,0 0.353227,-0.109966 0.133291,-0.113301 0.133291,-0.309906 0,-0.209941 -0.133291,-0.316575 -0.133296,-0.106634 -0.353227,-0.106634 H 9.9456274 l 0.063313,-0.07664 v 2.032728 z m 1.2662887,0 -0.52984,-0.943052 h 0.366555 l 0.529845,0.943052 z"
       style="font-size:6.92132px;line-height:1.25;font-family:Gabarito;-inkscape-font-specification:Gabarito;letter-spacing:0.519101px;fill:#ffffff;stroke:#ffffff;stroke-width:0.185208;stroke-miterlimit:4;stroke-dasharray:none;stroke-opacity:0.996502"
       id="path17023-6-7" />
    <path
       d="M 13.567875,14.759781 V 12.74038 h 0.333237 v 2.019401 z m -0.709787,-1.956084 v -0.313238 h 1.786139 v 0.313238 z"
       style="font-size:6.92132px;line-height:1.25;font-family:Gabarito;-inkscape-font-specification:Gabarito;letter-spacing:0.519101px;fill:#ffffff;stroke:#ffffff;stroke-width:0.185208;stroke-miterlimit:4;stroke-dasharray:none;stroke-opacity:0.996502"
       id="path17025-0-1" />
    <path
       d="M 15.47731,13.776739 V 13.4635 h 0.916395 v 0.313239 z m -0.01,-0.973042 0.07665,-0.106634 v 1.799464 l -0.09331,-0.05332 h 1.139659 v 0.31657 h -1.37959 v -2.269322 h 1.37959 v 0.313238 z"
       style="font-size:6.92132px;line-height:1.25;font-family:Gabarito;-inkscape-font-specification:Gabarito;letter-spacing:0.519101px;fill:#ffffff;stroke:#ffffff;stroke-width:0.185208;stroke-miterlimit:4;stroke-dasharray:none;stroke-opacity:0.996502"
       id="path17027-6-7" />
    <path
       d="m 18.269812,14.793107 q -0.343232,0 -0.603157,-0.149956 -0.256587,-0.153287 -0.399878,-0.416545 -0.14329,-0.266584 -0.14329,-0.599818 0,-0.253263 0.08664,-0.466531 0.08664,-0.213267 0.23993,-0.369892 0.156619,-0.156618 0.363222,-0.243258 0.209941,-0.08664 0.456533,-0.08664 0.38655,0 0.633147,0.159955 0.246592,0.15662 0.403211,0.423205 l -0.32657,0.09664 q -0.153286,-0.209936 -0.329899,-0.283248 -0.173286,-0.07664 -0.379889,-0.07664 -0.22993,0 -0.41321,0.109965 -0.179947,0.109971 -0.286582,0.299912 -0.106635,0.189946 -0.106635,0.43654 0,0.243258 0.106635,0.436536 0.106635,0.189941 0.286582,0.299911 0.18328,0.109966 0.41321,0.109966 0.206603,0 0.379889,-0.07331 0.176613,-0.07664 0.329899,-0.28658 l 0.32657,0.09664 q -0.156619,0.266584 -0.403211,0.42654 -0.246597,0.156619 -0.633147,0.156619 z"
       style="font-size:6.92132px;line-height:1.25;font-family:Gabarito;-inkscape-font-specification:Gabarito;letter-spacing:0.519101px;fill:#ffffff;stroke:#ffffff;stroke-width:0.185208;stroke-miterlimit:4;stroke-dasharray:none;stroke-opacity:0.996502"
       id="path17029-2-2" />
    <path
       d="m 21.348896,14.759781 v -2.269322 h 0.333233 v 2.269322 z m -1.426245,0 v -2.269322 h 0.333237 v 2.269322 z m 0.219936,-0.953047 v -0.313243 h 1.306278 v 0.313243 z"
       style="font-size:6.92132px;line-height:1.25;font-family:Gabarito;-inkscape-font-specification:Gabarito;letter-spacing:0.519101px;fill:#ffffff;stroke:#ffffff;stroke-width:0.185208;stroke-miterlimit:4;stroke-dasharray:none;stroke-opacity:0.996502"
       id="path17031-6-7" />
    <path
       d="m 24.111409,14.759781 -1.46623,-1.902767 0.186609,-0.05332 v 1.956084 h -0.333233 v -2.269322 h 0.283249 l 1.416246,1.836118 h -0.136625 v -1.836118 h 0.333233 v 2.269322 z"
       style="font-size:6.92132px;line-height:1.25;font-family:Gabarito;-inkscape-font-specification:Gabarito;letter-spacing:0.519101px;fill:#ffffff;stroke:#ffffff;stroke-width:0.185208;stroke-miterlimit:4;stroke-dasharray:none;stroke-opacity:0.996502"
       id="path17033-1-2" />
    <path
       d="m 25.027799,13.626788 q 0,-0.253263 0.08664,-0.466531 0.08997,-0.213267 0.249926,-0.369892 0.159952,-0.156618 0.373226,-0.243258 0.216598,-0.08664 0.469857,-0.08664 0.249925,0 0.463195,0.08664 0.213274,0.08664 0.369893,0.243258 0.159952,0.156625 0.246592,0.369892 0.08997,0.213268 0.08997,0.466531 0,0.249921 -0.08997,0.463194 -0.08664,0.213268 -0.246592,0.373224 -0.156619,0.156619 -0.369893,0.243258 -0.21327,0.08664 -0.463195,0.08664 -0.253259,0 -0.469857,-0.08664 -0.213274,-0.08664 -0.373226,-0.243258 -0.159952,-0.159956 -0.249926,-0.373224 -0.08664,-0.213273 -0.08664,-0.463194 z m 0.339899,0 q 0,0.243258 0.109968,0.436536 0.109968,0.189941 0.29991,0.299911 0.189946,0.109966 0.429872,0.109966 0.239931,0 0.426544,-0.109966 0.186608,-0.10997 0.293243,-0.299911 0.109968,-0.193278 0.109968,-0.436536 0,-0.246594 -0.109968,-0.43654 -0.106635,-0.189941 -0.293243,-0.299912 -0.186613,-0.109965 -0.426544,-0.109965 -0.239926,0 -0.429872,0.109965 -0.189942,0.109971 -0.29991,0.299912 -0.109968,0.189946 -0.109968,0.43654 z"
       style="font-size:6.92132px;line-height:1.25;font-family:Gabarito;-inkscape-font-specification:Gabarito;letter-spacing:0.519101px;fill:#ffffff;stroke:#ffffff;stroke-width:0.185208;stroke-miterlimit:4;stroke-dasharray:none;stroke-opacity:0.996502"
       id="path17035-8-2" />
    <path
       d="m 29.323188,14.759781 h -1.312945 v -2.269322 h 0.333238 v 2.002737 l -0.03997,-0.04665 h 1.019696 z"
       style="font-size:6.92132px;line-height:1.25;font-family:Gabarito;-inkscape-font-specification:Gabarito;letter-spacing:0.519101px;fill:#ffffff;stroke:#ffffff;stroke-width:0.185208;stroke-miterlimit:4;stroke-dasharray:none;stroke-opacity:0.996502"
       id="path17037-7-6" />
    <path
       d="m 29.65642,13.626788 q 0,-0.253263 0.08664,-0.466531 0.08997,-0.213267 0.249926,-0.369892 0.159957,-0.156618 0.373226,-0.243258 0.216603,-0.08664 0.469857,-0.08664 0.249925,0 0.4632,0.08664 0.213269,0.08664 0.369888,0.243258 0.159952,0.156625 0.246592,0.369892 0.08997,0.213268 0.08997,0.466531 0,0.249921 -0.08997,0.463194 -0.08664,0.213268 -0.246592,0.373224 -0.156619,0.156619 -0.369888,0.243258 -0.213275,0.08664 -0.4632,0.08664 -0.253254,0 -0.469857,-0.08664 -0.213269,-0.08664 -0.373226,-0.243258 -0.159952,-0.159956 -0.249926,-0.373224 -0.08664,-0.213273 -0.08664,-0.463194 z m 0.339899,0 q 0,0.243258 0.109968,0.436536 0.109968,0.189941 0.299909,0.299911 0.189947,0.109966 0.429873,0.109966 0.23993,0 0.426544,-0.109966 0.186608,-0.10997 0.293243,-0.299911 0.109968,-0.193278 0.109968,-0.436536 0,-0.246594 -0.109968,-0.43654 -0.106635,-0.189941 -0.293243,-0.299912 -0.186614,-0.109965 -0.426544,-0.109965 -0.239926,0 -0.429873,0.109965 -0.189941,0.109971 -0.299909,0.299912 -0.109968,0.189946 -0.109968,0.43654 z"
       style="font-size:6.92132px;line-height:1.25;font-family:Gabarito;-inkscape-font-specification:Gabarito;letter-spacing:0.519101px;fill:#ffffff;stroke:#ffffff;stroke-width:0.185208;stroke-miterlimit:4;stroke-dasharray:none;stroke-opacity:0.996502"
       id="path17039-9-1" />
    <path
       d="m 33.635233,14.793107 q -0.343232,0 -0.603153,-0.149956 -0.256592,-0.153287 -0.399882,-0.416545 -0.143291,-0.266584 -0.143291,-0.599818 0,-0.253263 0.08664,-0.466531 0.08664,-0.213267 0.239931,-0.369892 0.156618,-0.156618 0.363226,-0.243258 0.209936,-0.08664 0.456529,-0.08664 0.386554,0 0.633146,0.159955 0.246593,0.15662 0.403216,0.423205 l -0.32657,0.09664 q -0.153291,-0.209936 -0.329904,-0.283248 -0.17328,-0.07664 -0.379888,-0.07664 -0.229931,0 -0.413211,0.109965 -0.179947,0.109971 -0.286582,0.299912 -0.106634,0.189946 -0.106634,0.43654 0,0.243258 0.106634,0.436536 0.106635,0.189941 0.286582,0.299911 0.18328,0.109966 0.413211,0.109966 0.219936,0 0.399882,-0.09664 0.18328,-0.09997 0.289915,-0.269916 0.106635,-0.169951 0.106635,-0.386556 l 0.04997,0.193278 h -0.866411 v -0.313243 h 1.113003 q 0.01,0.03332 0.01332,0.07664 0.0067,0.04333 0.0067,0.08331 0,0.213268 -0.08331,0.399882 -0.08331,0.18661 -0.236597,0.329902 -0.149953,0.143288 -0.353227,0.223268 -0.199942,0.07997 -0.439872,0.07997 z"
       style="font-size:6.92132px;line-height:1.25;font-family:Gabarito;-inkscape-font-specification:Gabarito;letter-spacing:0.519101px;fill:#ffffff;stroke:#ffffff;stroke-width:0.185208;stroke-miterlimit:4;stroke-dasharray:none;stroke-opacity:0.996502"
       id="path17041-2-0" />
    <path
       d="m 35.987863,13.800065 h -0.213269 l 0.659803,-1.309606 h 0.373221 l -0.806427,1.526211 0.04997,-0.28658 v 1.029691 H 35.717933 V 13.73009 l 0.04666,0.28658 -0.799761,-1.526211 h 0.369889 z"
       style="font-size:6.92132px;line-height:1.25;font-family:Gabarito;-inkscape-font-specification:Gabarito;letter-spacing:0.519101px;fill:#ffffff;stroke:#ffffff;stroke-width:0.185208;stroke-miterlimit:4;stroke-dasharray:none;stroke-opacity:0.996502"
       id="path17043-0-6" />
    <path
       d="m 38.730376,13.713427 h 0.469862 q 0.219936,0 0.353227,-0.119966 0.133296,-0.119965 0.133296,-0.333233 0,-0.2266 -0.133296,-0.339897 -0.129963,-0.116634 -0.349894,-0.116634 h -0.473195 l 0.05998,-0.07664 v 2.032728 h -0.333237 v -2.269322 h 0.803094 q 0.233269,0 0.406549,0.103302 0.17328,0.103302 0.26992,0.276585 0.09663,0.173278 0.09663,0.389882 0,0.213268 -0.09663,0.389882 -0.09664,0.173282 -0.273253,0.276585 -0.17328,0.09997 -0.406544,0.09997 h -0.526513 z"
       style="font-size:6.92132px;line-height:1.25;font-family:Gabarito;-inkscape-font-specification:Gabarito;letter-spacing:0.519101px;fill:#ffffff;stroke:#ffffff;stroke-width:0.185208;stroke-miterlimit:4;stroke-dasharray:none;stroke-opacity:0.996502"
       id="path17045-2-1" />
    <path
       d="m 40.676458,13.9167 h 1.222976 v 0.313238 h -1.222976 z m -0.426539,0.843081 0.809765,-2.269322 h 0.453195 l 0.80976,2.269322 h -0.339898 l -0.726454,-2.036059 h 0.05998 l -0.726448,2.036059 z"
       style="font-size:6.92132px;line-height:1.25;font-family:Gabarito;-inkscape-font-specification:Gabarito;letter-spacing:0.519101px;fill:#ffffff;stroke:#ffffff;stroke-width:0.185208;stroke-miterlimit:4;stroke-dasharray:none;stroke-opacity:0.996502"
       id="path17047-3-5" />
    <path
       d="m 42.855808,14.759781 v -2.269322 h 0.833088 q 0.233264,0 0.406544,0.09997 0.176614,0.09664 0.273254,0.263259 0.09664,0.166614 0.09664,0.373223 0,0.206604 -0.09664,0.373219 -0.09664,0.166619 -0.273254,0.263258 -0.17328,0.09664 -0.406544,0.09664 h -0.559835 v -0.313244 h 0.503184 q 0.219931,0 0.353232,-0.109966 0.133291,-0.113301 0.133291,-0.309906 0,-0.209941 -0.133291,-0.316575 -0.133301,-0.106634 -0.353232,-0.106634 h -0.506517 l 0.06332,-0.07664 v 2.032728 z m 1.266294,0 -0.529846,-0.943052 h 0.366555 l 0.529846,0.943052 z"
       style="font-size:6.92132px;line-height:1.25;font-family:Gabarito;-inkscape-font-specification:Gabarito;letter-spacing:0.519101px;fill:#ffffff;stroke:#ffffff;stroke-width:0.185208;stroke-miterlimit:4;stroke-dasharray:none;stroke-opacity:0.996502"
       id="path17049-7-9" />
    <path
       d="M 45.598326,14.759781 V 12.74038 h 0.333233 v 2.019401 z m -0.709787,-1.956084 v -0.313238 h 1.786129 v 0.313238 z"
       style="font-size:6.92132px;line-height:1.25;font-family:Gabarito;-inkscape-font-specification:Gabarito;letter-spacing:0.519101px;fill:#ffffff;stroke:#ffffff;stroke-width:0.185208;stroke-miterlimit:4;stroke-dasharray:none;stroke-opacity:0.996502"
       id="path17051-5-4" />
    <path
       d="m 48.854024,14.759781 -1.466235,-1.902767 0.186613,-0.05332 v 1.956084 h -0.333237 v -2.269322 h 0.283248 l 1.416251,1.836118 h -0.136629 v -1.836118 h 0.333237 v 2.269322 z"
       style="font-size:6.92132px;line-height:1.25;font-family:Gabarito;-inkscape-font-specification:Gabarito;letter-spacing:0.519101px;fill:#ffffff;stroke:#ffffff;stroke-width:0.185208;stroke-miterlimit:4;stroke-dasharray:none;stroke-opacity:0.996502"
       id="path17053-9-9" />
    <path
       d="M 50.22028,13.776739 V 13.4635 h 0.916395 v 0.313239 z m -0.01,-0.973042 0.07664,-0.106634 v 1.799464 l -0.0933,-0.05332 h 1.13966 v 0.31657 h -1.37959 v -2.269322 h 1.37959 v 0.313238 z"
       style="font-size:6.92132px;line-height:1.25;font-family:Gabarito;-inkscape-font-specification:Gabarito;letter-spacing:0.519101px;fill:#ffffff;stroke:#ffffff;stroke-width:0.185208;stroke-miterlimit:4;stroke-dasharray:none;stroke-opacity:0.996502"
       id="path17055-2-0" />
    <path
       d="m 52.049732,14.759781 v -2.269322 h 0.833083 q 0.233264,0 0.40655,0.09997 0.176613,0.09664 0.273253,0.263259 0.09663,0.166614 0.09663,0.373223 0,0.206604 -0.09663,0.373219 -0.09664,0.166619 -0.273253,0.263258 -0.173286,0.09664 -0.40655,0.09664 h -0.559829 v -0.313244 h 0.503184 q 0.219936,0 0.353227,-0.109966 0.13329,-0.113301 0.13329,-0.309906 0,-0.209941 -0.13329,-0.316575 -0.133291,-0.106634 -0.353227,-0.106634 h -0.506518 l 0.06331,-0.07664 v 2.032728 z m 1.266289,0 -0.529841,-0.943052 h 0.36656 l 0.529841,0.943052 z"
       style="font-size:6.92132px;line-height:1.25;font-family:Gabarito;-inkscape-font-specification:Gabarito;letter-spacing:0.519101px;fill:#ffffff;stroke:#ffffff;stroke-width:0.185208;stroke-miterlimit:4;stroke-dasharray:none;stroke-opacity:0.996502"
       id="path17057-2-9" />
  </g>
</svg>
